<svg height="511pt" viewBox="-44 0 511 511.99983" width="511pt" xmlns="http://www.w3.org/2000/svg"><path d="m177.050781 264.828125h70.621094v61.792969h-70.621094zm0 0" fill="#f6bb92"/><path d="m322.707031 203.03125h-30.894531v-44.136719h30.894531c12.191407 0 22.070313 9.882813 22.070313 22.070313s-9.878906 22.066406-22.070313 22.066406zm0 0" fill="#f6bb92"/><path d="m102.019531 203.03125h39.722657v-44.136719h-39.722657c-12.191406 0-22.070312 9.882813-22.070312 22.070313s9.878906 22.066406 22.070312 22.066406zm0 0" fill="#f6bb92"/><path d="m256.5 317.792969h88.277344c39.003906 0 70.621094 31.617187 70.621094 70.621093v114.757813h-406.070313v-114.757813c0-39.003906 31.617187-70.621093 70.621094-70.621093zm0 0" fill="#cdcdcd"/><path d="m344.777344 450.207031h70.621094v52.964844h-70.621094zm0 0" fill="#fdc9a6"/><path d="m9.328125 450.207031h70.621094v52.964844h-70.621094zm0 0" fill="#fdc9a6"/><path d="m124.085938 105.929688v88.277343c0 48.753907 39.523437 88.273438 88.277343 88.273438 48.753907 0 88.277344-39.519531 88.277344-88.273438v-88.277343zm0 0" fill="#fdc9a6"/><path d="m221.191406 203.03125h-17.65625c-4.875.003906-8.828125-3.949219-8.828125-8.824219-.003906-.949219.152344-1.890625.449219-2.792969l8.828125-26.480468c1.542969-4.632813 6.546875-7.136719 11.175781-5.597656 4.632813 1.542968 7.136719 6.542968 5.597656 11.175781l-4.980468 14.867187h5.414062c4.875 0 8.828125 3.953125 8.828125 8.828125s-3.953125 8.824219-8.828125 8.824219zm0 0" fill="#834b10"/><path d="m159.398438 317.792969 44.136718 52.964843h17.628906l44.164063-52.964843zm0 0" fill="#f6bb92"/><path d="m230.019531 414.894531h-35.3125l-8.828125-44.136719h52.964844zm0 0" fill="#176177"/><path d="m238.84375 503.171875h-52.964844l8.828125-88.277344h35.3125zm0 0" fill="#1a6c85"/><g fill="#834b10"><path d="m309.464844 35.308594h-150.066406c-19.503907 0-35.3125 15.808594-35.3125 35.308594v88.277343l35.3125-52.964843h141.242187c19.5 0 35.308594-15.808594 35.308594-35.3125v-61.792969zm0 0"/><path d="m168.226562 185.378906c-4.878906 0-8.828124-3.953125-8.828124-8.828125v-8.828125c0-4.875 3.949218-8.828125 8.828124-8.828125 4.875 0 8.824219 3.953125 8.824219 8.828125v8.828125c0 4.875-3.949219 8.828125-8.824219 8.828125zm0 0"/><path d="m256.5 185.378906c-4.875 0-8.828125-3.953125-8.828125-8.828125v-8.828125c0-4.875 3.953125-8.828125 8.828125-8.828125s8.828125 3.953125 8.828125 8.828125v8.828125c0 4.875-3.953125 8.828125-8.828125 8.828125zm0 0"/><path d="m206.527344 242.976562c-1.835938.003907-3.671875-.089843-5.5-.273437l-.476563-.050781-.625-.082032c-4.820312-.734374-8.128906-5.238281-7.390625-10.058593.707032-4.628907 4.902344-7.898438 9.5625-7.453125 9.292969 1.164062 18.667969-1.429688 26.039063-7.210938l5.296875-4.113281c3.757812-3.109375 9.320312-2.585937 12.429687 1.167969s2.585938 9.320312-1.167969 12.429687c-.132812.109375-.265624.210938-.402343.3125l-5.296875 4.113281c-9.257813 7.277344-20.695313 11.226563-32.46875 11.21875zm0 0"/></g><path d="m265.328125 441.378906h52.964844v17.65625h-52.964844zm0 0" fill="#b9b9b9"/><path d="m159.398438 317.792969h-8.828126v79.449219l52.992188-26.511719zm0 0" fill="#d9d9d9"/><path d="m265.328125 317.792969h8.828125v79.449219l-52.964844-26.457032zm0 0" fill="#d9d9d9"/><path d="m415.398438 512h-406.070313c-4.875 0-8.828125-3.949219-8.828125-8.828125v-114.757813c0-43.8125 35.640625-79.449218 79.449219-79.449218h94.164062c4.875 0 8.828125 3.949218 8.828125 8.828125 0 4.878906-3.953125 8.828125-8.828125 8.828125h-94.164062c-34.074219 0-61.792969 27.722656-61.792969 61.792968v105.929688h388.414062v-105.929688c0-34.070312-27.722656-61.792968-61.792968-61.792968h-96.371094c-4.878906 0-8.828125-3.949219-8.828125-8.828125 0-4.878907 3.949219-8.828125 8.828125-8.828125h96.371094c43.808594 0 79.449218 35.636718 79.449218 79.449218v114.757813c0 4.878906-3.949218 8.828125-8.828124 8.828125zm0 0"/><path d="m424.226562 512h-88.277343v-70.621094h88.277343zm-70.621093-17.65625h52.964843v-35.308594h-52.964843zm0 0"/><path d="m88.777344 512h-88.277344v-70.621094h88.277344zm-70.621094-17.65625h52.964844v-35.308594h-52.964844zm0 0"/><path d="m212.363281 291.308594c-53.542969 0-97.105469-43.558594-97.105469-97.101563v-88.277343c0-4.875 3.953126-8.828126 8.828126-8.828126h176.554687c4.878906 0 8.824219 3.953126 8.824219 8.828126v88.277343c0 53.542969-43.558594 97.101563-97.101563 97.101563zm-79.449219-176.550782v79.449219c0 43.804688 35.640626 79.445313 79.449219 79.445313 43.808594 0 79.449219-35.640625 79.449219-79.445313v-79.449219zm0 0"/><path d="m221.191406 203.03125h-17.65625c-2.835937 0-5.5-1.359375-7.160156-3.667969-1.660156-2.300781-2.113281-5.257812-1.214844-7.949219l8.828125-26.484374c1.542969-4.621094 6.535157-7.132813 11.167969-5.582032 4.625 1.542969 7.121094 6.542969 5.582031 11.167969l-4.957031 14.863281h5.410156c4.878906 0 8.828125 3.953125 8.828125 8.828125s-3.949219 8.824219-8.828125 8.824219zm0 0"/><path d="m322.707031 211.859375h-22.066406c-4.882813 0-8.828125-3.949219-8.828125-8.824219v-44.140625c0-4.875 3.945312-8.828125 8.828125-8.828125h22.066406c17.035157 0 30.898438 13.863282 30.898438 30.898438s-13.863281 30.894531-30.898438 30.894531zm-13.242187-17.652344h13.242187c7.304688 0 13.242188-5.941406 13.242188-13.242187 0-7.300782-5.9375-13.242188-13.242188-13.242188h-13.242187zm0 0"/><path d="m124.085938 211.859375h-22.066407c-17.035156 0-30.898437-13.859375-30.898437-30.894531s13.863281-30.898438 30.898437-30.898438h22.066407c4.875 0 8.828124 3.953125 8.828124 8.828125v44.136719c0 4.875-3.953124 8.828125-8.828124 8.828125zm-22.066407-44.136719c-7.304687 0-13.242187 5.941406-13.242187 13.242188 0 7.300781 5.9375 13.242187 13.242187 13.242187h13.238281v-26.484375zm0 0"/><path d="m344.777344 512h-264.828125c-4.875 0-8.828125-3.949219-8.828125-8.828125v-79.449219c0-4.878906 3.953125-8.828125 8.828125-8.828125s8.828125 3.949219 8.828125 8.828125v70.621094h247.171875v-70.621094c0-4.878906 3.949219-8.828125 8.828125-8.828125s8.828125 3.949219 8.828125 8.828125v79.449219c0 4.878906-3.949219 8.828125-8.828125 8.828125zm0 0"/><path d="m177.058594 326.621094c-.058594 0-.113282 0-.167969 0-4.875-.097656-8.757813-4.113282-8.664063-8.992188l.730469-39.726562c.089844-4.867188 4.207031-8.703125 8.992188-8.660156 4.875.09375 8.753906 4.109374 8.664062 8.988281l-.734375 39.726562c-.089844 4.816407-4.023437 8.664063-8.820312 8.664063zm0 0"/><path d="m261.648438 326.621094h-13.976563c-4.878906 0-8.824219-3.949219-8.824219-8.828125v-40.457031c0-4.878907 3.945313-8.828126 8.824219-8.828126s8.828125 3.949219 8.828125 8.828126v31.628906h5.148438c4.878906 0 8.828124 3.949218 8.828124 8.828125 0 4.878906-3.949218 8.828125-8.828124 8.828125zm0 0"/><path d="m221.164062 379.585938h-17.628906c-2.621094 0-5.101562-1.164063-6.78125-3.171876l-44.136718-52.964843c-2.195313-2.640625-2.667969-6.304688-1.214844-9.398438 1.453125-3.105469 4.566406-5.085937 7.996094-5.085937h15.445312c4.875 0 8.828125 3.949218 8.828125 8.828125 0 3.835937-2.441406 7.09375-5.855469 8.316406l29.851563 35.820313h9.363281l29.589844-35.492188c-4.015625-.820312-7.042969-4.378906-7.042969-8.644531 0-4.878907 3.949219-8.828125 8.828125-8.828125h16.921875c3.421875 0 6.542969 1.980468 7.992187 5.085937 1.457032 3.101563.980469 6.765625-1.214843 9.398438l-44.164063 52.964843c-1.671875 2.007813-4.15625 3.171876-6.777344 3.171876zm0 0"/><path d="m150.570312 406.066406c-1.613281 0-3.226562-.4375-4.644531-1.316406-2.597656-1.605469-4.183593-4.449219-4.183593-7.507812v-79.449219c0-4.878907 3.953124-8.828125 8.828124-8.828125h8.824219c2.617188 0 5.105469 1.164062 6.78125 3.171875l44.164063 52.941406c1.726562 2.070313 2.414062 4.816406 1.863281 7.457031-.550781 2.644532-2.28125 4.886719-4.695313 6.09375l-52.992187 26.507813c-1.242187.621093-2.597656.929687-3.945313.929687zm8.828126-74.488281v51.378906l30.238281-15.128906zm0 0"/><path d="m274.15625 406.066406c-1.34375 0-2.699219-.308594-3.949219-.929687l-52.960937-26.457031c-2.414063-1.207032-4.140625-3.449219-4.695313-6.085938-.554687-2.636719.128907-5.386719 1.855469-7.457031l44.136719-52.992188c1.683593-2.015625 4.164062-3.179687 6.785156-3.179687h8.828125c4.878906 0 8.828125 3.949218 8.828125 8.828125v79.449219c0 3.058593-1.585937 5.894531-4.183594 7.507812-1.421875.878906-3.03125 1.316406-4.644531 1.316406zm-39.050781-38.195312 30.222656 15.09375v-51.378906zm0 0"/><path d="m230.019531 423.722656h-35.3125c-4.207031 0-7.832031-2.972656-8.65625-7.09375l-7.066406-35.363281 17.308594-3.464844 5.652343 28.269531h20.839844l5.59375-27.984374 17.3125 3.464843-7.019531 35.078125c-.828125 4.121094-4.445313 7.09375-8.652344 7.09375zm0 0"/><path d="m197.648438 361.929688h26.480468v17.65625h-26.480468zm0 0"/><path d="m238.84375 512h-52.964844c-2.496094 0-4.871094-1.050781-6.542968-2.90625-1.675782-1.84375-2.488282-4.316406-2.242188-6.800781l8.828125-88.277344c.453125-4.507813 4.25-7.949219 8.785156-7.949219h35.3125c4.53125 0 8.335938 3.441406 8.78125 7.949219l8.828125 88.277344c.25 2.484375-.566406 4.957031-2.242187 6.800781-1.671875 1.855469-4.050781 2.90625-6.542969 2.90625zm-43.210938-17.65625h33.453126l-7.058594-70.621094h-19.332032zm0 0"/><path d="m124.085938 167.722656c-.851563 0-1.710938-.121094-2.554688-.378906-3.726562-1.125-6.273438-4.5625-6.273438-8.449219v-88.277343c0-24.335938 19.804688-44.136719 44.140626-44.136719h146.414062l23.894531-23.894531c2.527344-2.5273442 6.320313-3.277344 9.621094-1.914063s5.449219 4.585937 5.449219 8.152344v61.792969c0 24.339843-19.800782 44.140624-44.136719 44.140624h-136.519531l-32.691406 49.035157c-1.667969 2.5-4.445313 3.929687-7.34375 3.929687zm35.3125-123.585937c-14.605469 0-26.484376 11.878906-26.484376 26.480469v59.121093l19.136719-28.707031c1.640625-2.457031 4.394531-3.929688 7.347657-3.929688h141.242187c14.601563 0 26.480469-11.878906 26.480469-26.480468v-40.484375l-11.414063 11.414062c-1.65625 1.652344-3.894531 2.585938-6.242187 2.585938zm0 0"/><path d="m168.226562 185.378906c-4.875 0-8.828124-3.953125-8.828124-8.828125v-8.828125c0-4.875 3.953124-8.828125 8.828124-8.828125 4.871094 0 8.824219 3.953125 8.824219 8.828125v8.828125c0 4.875-3.953125 8.828125-8.824219 8.828125zm0 0"/><path d="m256.5 185.378906c-4.878906 0-8.828125-3.953125-8.828125-8.828125v-8.828125c0-4.875 3.949219-8.828125 8.828125-8.828125s8.828125 3.953125 8.828125 8.828125v8.828125c0 4.875-3.949219 8.828125-8.828125 8.828125zm0 0"/><path d="m206.445312 243.015625c-2.15625 0-4.320312-.128906-6.492187-.390625-4.820313-.585938-8.261719-4.953125-7.703125-9.777344.558594-4.820312 4.839844-8.257812 9.730469-7.761718.039062.003906.082031.007812.121093.011718 9.359376 1.15625 18.59375-1.445312 26.011719-7.25l5.320313-4.128906c3.867187-3.007812 9.394531-2.289062 12.386718 1.554688 2.992188 3.851562 2.292969 9.394531-1.5625 12.382812l-5.292968 4.113281c-9.386719 7.355469-20.753906 11.246094-32.519532 11.246094zm0 0"/><path d="m265.328125 441.378906h52.964844v17.65625h-52.964844zm0 0"/></svg>