<?xml version="1.0" encoding="iso-8859-1"?>
<!-- Generator: Adobe Illustrator 19.0.0, SVG Export Plug-In . SVG Version: 6.00 Build 0)  -->
<svg xmlns="http://www.w3.org/2000/svg" xmlns:xlink="http://www.w3.org/1999/xlink" version="1.1" id="Layer_1" x="0px" y="0px" viewBox="0 0 432.115 432.115" style="enable-background:new 0 0 432.115 432.115;" xml:space="preserve" width="512px" height="512px">
<g>
	<g>
		<g>
			<path d="M184.007,209.972c23.96,0,47.357-14.538,65.881-40.936c16.347-23.296,26.106-52.099,26.106-77.048     C275.994,41.266,234.728,0,184.007,0c-50.722,0-91.988,41.266-91.988,91.988c0,24.949,9.759,53.752,26.106,77.048     C136.649,195.434,160.046,209.972,184.007,209.972z M184.007,15c42.451,0,76.987,34.537,76.987,76.988     c0,21.655-8.961,47.876-23.385,68.432c-15.409,21.958-34.946,34.552-53.603,34.552c-18.657,0-38.194-12.594-53.603-34.552     c-14.425-20.556-23.385-46.777-23.385-68.432C107.019,49.537,141.555,15,184.007,15z" fill="#FFFFFF"/>
			<path d="M219.938,388.361c0.095,0.065,0.177,0.12-0.018-0.013c-0.191-0.129-0.105-0.07-0.009-0.005     c-2.877-1.939-6.858-1.553-9.346,0.842c-2.161,2.081-2.88,5.331-1.788,8.127c1.069,2.735,3.732,4.651,6.672,4.769     c3.223,0.129,6.237-1.894,7.347-4.914C223.983,393.939,222.755,390.296,219.938,388.361z" fill="#FFFFFF"/>
			<path d="M310.862,237.118c-0.727,0-1.452,0.012-2.176,0.028c-15.063-18.626-34.3-33.832-55.87-44.1     c-2.862-1.363-6.274-0.777-8.521,1.462c-18.069,18.023-38.919,27.55-60.293,27.55c-21.377,0-42.222-9.526-60.282-27.549     c-2.246-2.242-5.658-2.827-8.522-1.463c-26.963,12.838-49.783,32.917-65.992,58.067c-16.652,25.836-25.454,55.811-25.454,86.684     v0.13c0,2.116,0.894,4.134,2.462,5.556c43.279,39.249,99.316,60.864,157.788,60.864c3.088,0,6.209-0.061,9.277-0.18     c4.139-0.161,7.364-3.646,7.203-7.785c-0.161-4.139-3.656-7.365-7.785-7.203c-2.874,0.111-5.799,0.168-8.695,0.168     c-53.62,0-105.055-19.418-145.215-54.746c0.583-26.855,8.515-52.846,23.027-75.363c13.766-21.359,32.788-38.684,55.228-50.357     c20.046,18.456,43.095,28.175,66.961,28.175c23.862,0,46.915-9.72,66.968-28.175c14.823,7.722,28.305,18.051,39.688,30.345     c-44.099,9.33-77.297,48.553-77.297,95.389c0,53.762,43.738,97.5,97.5,97.5c53.762,0,97.5-43.738,97.5-97.5     C408.363,280.853,364.624,237.118,310.862,237.118z M310.862,417.118c-45.49,0-82.5-37.009-82.5-82.5     c0-45.491,37.01-82.5,82.5-82.5s82.5,37.009,82.5,82.5C393.362,380.109,356.352,417.118,310.862,417.118z" fill="#FFFFFF"/>
			<path d="M373.088,327.118h-54.726v-54.726c0-4.142-3.357-7.5-7.5-7.5s-7.5,3.358-7.5,7.5v54.726h-54.726     c-4.143,0-7.5,3.358-7.5,7.5c0,4.142,3.357,7.5,7.5,7.5h54.726v54.725c0,4.142,3.357,7.5,7.5,7.5s7.5-3.358,7.5-7.5v-54.725     h54.726c4.143,0,7.5-3.358,7.5-7.5C380.588,330.476,377.23,327.118,373.088,327.118z" fill="#FFFFFF"/>
		</g>
	</g>
</g>
<g>
</g>
<g>
</g>
<g>
</g>
<g>
</g>
<g>
</g>
<g>
</g>
<g>
</g>
<g>
</g>
<g>
</g>
<g>
</g>
<g>
</g>
<g>
</g>
<g>
</g>
<g>
</g>
<g>
</g>
</svg>
